<svg width="422" height="292" viewBox="0 0 422 292" fill="none" xmlns="http://www.w3.org/2000/svg">
<path d="M219.273 3.08447V88.4215C219.273 90.1499 218.361 91.7433 216.878 92.6075L113.88 152.564C112.502 153.368 110.776 152.364 110.776 150.761V65.324C110.776 64.29 111.109 63.296 111.694 62.4867C112.08 61.9423 112.586 61.4827 113.181 61.1331L216.174 1.28122C217.553 0.481995 219.273 1.48102 219.273 3.08447Z" fill="#12183E"/>
<path d="M258.064 189.538C273.326 198.415 273.405 212.861 258.242 221.737C243.079 230.613 218.326 230.613 203.064 221.737L163.808 198.904C148.545 190.028 148.466 175.582 163.629 166.705C178.792 157.829 203.545 157.829 218.807 166.705L258.064 189.538ZM218.976 212.421C225.407 216.162 235.84 216.162 242.226 212.421C248.613 208.68 248.578 202.596 242.152 198.854L202.895 176.021C196.464 172.28 186.032 172.28 179.645 176.021C173.258 179.763 173.293 185.847 179.719 189.588L218.976 212.421Z" fill="#1C1C1C"/>
<path d="M112.031 152.949L115.274 154.268L221.311 2.54521L218.287 1.00171L111.089 63.6159L112.031 152.949Z" fill="#12183E"/>
<path d="M173 248.806L192.701 260.264L175.926 270.085L156.226 258.626L122.905 278.132C119.731 279.99 115.095 280.645 110.801 279.845C108.942 279.501 107.295 278.906 105.966 278.132C104.236 277.123 103.046 275.814 102.614 274.351L85.6614 216.252C84.7688 213.18 87.3472 210.158 92.0826 208.735C96.818 207.306 102.55 207.83 106.333 210.028L156.112 238.98L172.326 229.489C173.69 228.69 175.371 228.69 176.739 229.484L191.416 238.021L172.995 248.806H173ZM122.215 258.826L139.337 248.806L115.194 234.764L122.215 258.831" fill="#1C1C1C"/>
<path d="M198.467 221.402L198.433 233.615L180.012 244.4L180.046 232.187L198.467 221.402Z" fill="#848584"/>
<path d="M146.384 232.187L146.349 244.4L122.206 230.359L122.241 218.146L146.384 232.187Z" fill="#767776"/>
<path d="M182.967 253.461L182.932 265.679L163.237 254.22L163.272 242.007L182.967 253.461Z" fill="#969696"/>
<path d="M199.747 243.641L199.712 255.859L182.933 265.679L182.967 253.461L199.747 243.641Z" fill="#E8E8E8"/>
<path d="M92.7073 199.634C92.5883 199.224 92.5288 198.815 92.5337 198.41L92.499 210.623C92.499 211.028 92.5536 211.437 92.6726 211.847L109.626 269.945L109.66 257.732L92.7073 199.634Z" fill="#767776"/>
<path d="M198.467 221.402L198.433 233.615L180.012 244.4L180.046 232.187L198.467 221.402Z" stroke="#12183E" strokeWidth="0.589814" strokeLinecap="round" strokeLinejoin="round"/>
<path d="M129.951 261.514C129.753 261.628 129.544 261.743 129.331 261.848C129.262 261.883 129.187 261.913 129.118 261.948C128.974 262.018 128.83 262.088 128.682 262.153C128.592 262.193 128.503 262.228 128.414 262.263C128.28 262.318 128.141 262.378 128.002 262.433C127.903 262.473 127.799 262.503 127.7 262.538C127.566 262.587 127.432 262.632 127.298 262.677C127.263 262.687 127.229 262.697 127.194 262.707C126.906 262.797 126.614 262.882 126.311 262.957C126.232 262.977 126.148 262.997 126.068 263.017C125.741 263.097 125.409 263.172 125.067 263.232C124.898 263.262 124.725 263.287 124.551 263.317C124.472 263.332 124.388 263.347 124.308 263.357C124.05 263.392 123.792 263.427 123.53 263.452C123.143 263.492 122.751 263.512 122.359 263.532C122.275 263.532 122.196 263.537 122.112 263.542C121.759 263.552 121.402 263.557 121.045 263.542C120.991 263.542 120.936 263.542 120.877 263.537C120.579 263.527 120.282 263.512 119.989 263.487C119.895 263.482 119.801 263.472 119.707 263.462C119.365 263.432 119.022 263.397 118.685 263.347C118.675 263.347 118.67 263.347 118.66 263.347C118.388 263.307 118.115 263.262 117.847 263.212C117.689 263.182 117.53 263.147 117.376 263.117C116.999 263.037 116.627 262.947 116.27 262.842C116.196 262.822 116.122 262.802 116.047 262.777C115.899 262.732 115.75 262.687 115.606 262.637C115.522 262.607 115.437 262.582 115.353 262.552C115.199 262.498 115.051 262.443 114.902 262.388C114.832 262.363 114.768 262.338 114.699 262.313C114.431 262.203 114.168 262.088 113.915 261.973C113.861 261.948 113.801 261.918 113.747 261.893C113.494 261.768 113.246 261.638 113.008 261.504C111.277 260.495 110.087 259.186 109.656 257.722L109.621 269.935C110.052 271.399 111.243 272.713 112.973 273.717C113.206 273.852 113.454 273.981 113.712 274.106C113.766 274.131 113.821 274.161 113.88 274.186C114.133 274.306 114.391 274.421 114.664 274.531C114.674 274.531 114.689 274.541 114.699 274.546C114.753 274.566 114.808 274.586 114.862 274.606C115.011 274.661 115.16 274.716 115.313 274.771C115.398 274.801 115.482 274.826 115.571 274.856C115.715 274.9 115.859 274.95 116.008 274.99C116.057 275.005 116.102 275.02 116.146 275.035C116.171 275.045 116.201 275.05 116.231 275.055C116.588 275.155 116.96 275.245 117.337 275.33C117.366 275.335 117.391 275.345 117.416 275.35C117.545 275.375 117.679 275.405 117.808 275.43C118.075 275.48 118.348 275.525 118.621 275.565C118.626 275.565 118.636 275.565 118.641 275.565C118.978 275.615 119.32 275.65 119.662 275.68C119.707 275.68 119.746 275.69 119.791 275.695C119.841 275.695 119.89 275.695 119.945 275.705C120.242 275.725 120.54 275.745 120.837 275.755C120.882 275.755 120.922 275.76 120.966 275.76C120.981 275.76 120.991 275.76 121.006 275.76C121.363 275.77 121.72 275.765 122.072 275.76C122.107 275.76 122.146 275.76 122.181 275.76C122.226 275.76 122.27 275.755 122.32 275.75C122.712 275.735 123.103 275.71 123.495 275.67C123.758 275.645 124.016 275.61 124.273 275.575C124.363 275.565 124.447 275.545 124.531 275.535C124.695 275.51 124.854 275.485 125.012 275.455C125.017 275.455 125.022 275.455 125.032 275.455C125.369 275.395 125.702 275.32 126.034 275.24C126.118 275.22 126.197 275.2 126.277 275.18C126.574 275.105 126.872 275.02 127.159 274.93C127.184 274.92 127.209 274.915 127.239 274.91C127.249 274.91 127.254 274.906 127.263 274.901C127.402 274.856 127.536 274.806 127.67 274.761C127.769 274.726 127.873 274.691 127.972 274.656C128.111 274.606 128.245 274.546 128.379 274.491C128.468 274.451 128.563 274.416 128.652 274.376C128.801 274.311 128.939 274.241 129.083 274.171C129.158 274.136 129.232 274.101 129.301 274.066C129.515 273.956 129.718 273.847 129.921 273.732L163.242 254.226L163.277 242.012L129.956 261.518L129.951 261.514Z" fill="#969696"/>
<path d="M180.046 232.187L199.746 243.646L182.972 253.466L163.272 242.008L129.951 261.514C126.777 263.372 122.141 264.026 117.847 263.227C115.987 262.882 114.341 262.288 113.012 261.514C111.282 260.505 110.092 259.196 109.66 257.732L92.7073 199.634C91.8147 196.562 94.3931 193.54 99.1285 192.116C103.864 190.687 109.596 191.212 113.379 193.41L163.158 222.362L179.372 212.871C180.736 212.072 182.416 212.072 183.785 212.866L198.462 221.403L180.041 232.187H180.046ZM129.261 242.207L146.383 232.187L122.24 218.146L129.261 242.212" fill="#FDFEFF"/>
<path d="M254.186 189.243C254.191 186.771 252.575 184.293 249.342 182.41L210.085 159.577C209.698 159.353 209.297 159.143 208.88 158.943C208.741 158.878 208.598 158.823 208.459 158.758C208.216 158.648 207.973 158.533 207.72 158.433C207.675 158.413 207.626 158.398 207.581 158.383C207.487 158.349 207.388 158.314 207.294 158.279C206.966 158.159 206.634 158.044 206.297 157.934C206.183 157.899 206.069 157.859 205.955 157.829C205.88 157.804 205.806 157.779 205.727 157.759C205.395 157.664 205.052 157.579 204.715 157.494C204.641 157.479 204.571 157.459 204.497 157.444C204.333 157.409 204.175 157.369 204.011 157.334C203.877 157.305 203.733 157.29 203.6 157.265C203.312 157.21 203.019 157.16 202.727 157.11C202.613 157.09 202.499 157.065 202.38 157.05C202.251 157.03 202.122 157.025 201.993 157.005C201.72 156.97 201.443 156.94 201.17 156.91C201.041 156.895 200.912 156.875 200.783 156.865C200.659 156.855 200.535 156.855 200.411 156.845C200.134 156.825 199.856 156.81 199.573 156.8C199.434 156.795 199.296 156.78 199.157 156.78C199.043 156.78 198.934 156.78 198.82 156.78C198.517 156.78 198.215 156.78 197.912 156.78C197.763 156.78 197.615 156.78 197.466 156.78C197.317 156.785 197.163 156.795 197.015 156.805C196.93 156.805 196.851 156.815 196.767 156.82C196.39 156.84 196.013 156.87 195.641 156.905C195.572 156.91 195.502 156.925 195.433 156.93C195.324 156.94 195.21 156.955 195.101 156.97C194.719 157.015 194.342 157.07 193.965 157.13C193.871 157.145 193.777 157.16 193.683 157.175C193.638 157.185 193.588 157.19 193.544 157.2C193.365 157.235 193.192 157.28 193.013 157.315C192.711 157.374 192.408 157.434 192.111 157.509C191.892 157.564 191.679 157.624 191.461 157.684C191.178 157.764 190.896 157.839 190.618 157.929C190.559 157.949 190.494 157.964 190.435 157.984C190.098 158.094 189.77 158.214 189.443 158.339C189.398 158.354 189.354 158.373 189.309 158.393C188.947 158.533 188.595 158.688 188.248 158.848C188.149 158.893 188.045 158.943 187.946 158.993C187.564 159.178 187.192 159.373 186.84 159.577C186.77 159.617 186.706 159.657 186.641 159.697C186.577 159.737 186.522 159.777 186.458 159.812C186.359 159.872 186.26 159.937 186.16 160.002C186.071 160.062 185.982 160.122 185.898 160.182C185.803 160.247 185.709 160.312 185.62 160.377C185.536 160.436 185.456 160.501 185.377 160.561C185.293 160.626 185.203 160.696 185.124 160.761C185.045 160.826 184.97 160.886 184.896 160.951C184.817 161.021 184.737 161.086 184.663 161.156C184.633 161.186 184.599 161.211 184.569 161.241C184.539 161.271 184.514 161.296 184.484 161.326C184.356 161.445 184.232 161.57 184.118 161.695C184.078 161.74 184.033 161.78 183.994 161.825C183.845 161.99 183.701 162.155 183.567 162.325C183.562 162.33 183.557 162.34 183.552 162.345C183.523 162.385 183.498 162.42 183.468 162.46C183.389 162.569 183.309 162.674 183.235 162.784C183.195 162.844 183.161 162.904 183.121 162.959C183.056 163.059 182.997 163.154 182.942 163.254C182.928 163.279 182.908 163.304 182.893 163.334C182.868 163.374 182.853 163.414 182.828 163.459C182.784 163.543 182.739 163.623 182.699 163.708C182.665 163.778 182.635 163.848 182.605 163.918C182.571 164.003 182.531 164.088 182.501 164.168C182.486 164.203 182.466 164.243 182.456 164.278C182.442 164.313 182.437 164.348 182.422 164.383C182.392 164.463 182.367 164.542 182.342 164.622C182.323 164.692 182.298 164.767 182.278 164.837C182.258 164.917 182.238 165.002 182.218 165.082C182.209 165.127 182.194 165.167 182.189 165.212C182.184 165.242 182.179 165.272 182.174 165.302C182.159 165.387 182.144 165.467 182.134 165.552C182.124 165.621 182.114 165.696 182.109 165.766C182.099 165.851 182.095 165.936 182.09 166.016C182.09 166.066 182.08 166.111 182.08 166.161C182.08 166.211 182.08 166.256 182.08 166.306L182.045 178.519C182.045 178.424 182.05 178.324 182.06 178.229C182.06 178.144 182.07 178.059 182.08 177.979C182.085 177.91 182.095 177.835 182.104 177.765C182.114 177.68 182.129 177.6 182.144 177.515C182.159 177.44 182.174 177.37 182.189 177.295C182.209 177.215 182.228 177.13 182.248 177.05C182.268 176.975 182.288 176.905 182.313 176.836C182.337 176.756 182.362 176.676 182.392 176.596C182.417 176.526 182.442 176.456 182.471 176.381C182.506 176.296 182.541 176.211 182.575 176.126C182.605 176.056 182.64 175.986 182.67 175.916C182.709 175.832 182.754 175.752 182.799 175.667C182.833 175.602 182.873 175.532 182.908 175.467C182.967 175.367 183.027 175.267 183.091 175.172C183.131 175.112 183.166 175.052 183.205 174.997C183.28 174.887 183.359 174.778 183.443 174.673C183.478 174.628 183.508 174.583 183.542 174.538C183.676 174.368 183.82 174.203 183.969 174.038C184.008 173.993 184.053 173.953 184.093 173.908C184.212 173.784 184.336 173.659 184.465 173.539C184.524 173.484 184.584 173.429 184.643 173.369C184.718 173.299 184.797 173.229 184.881 173.164C184.956 173.099 185.03 173.039 185.109 172.974C185.194 172.904 185.278 172.839 185.367 172.774C185.446 172.715 185.526 172.65 185.61 172.59C185.699 172.525 185.794 172.46 185.888 172.395C185.972 172.335 186.061 172.275 186.151 172.215C186.25 172.15 186.349 172.09 186.448 172.025C186.572 171.945 186.696 171.87 186.825 171.79C187.182 171.581 187.554 171.391 187.931 171.206C188.03 171.156 188.129 171.111 188.233 171.061C188.58 170.901 188.932 170.746 189.289 170.607C189.334 170.592 189.379 170.572 189.423 170.552C189.805 170.407 190.202 170.272 190.598 170.147C190.876 170.057 191.159 169.982 191.446 169.902C191.659 169.842 191.873 169.782 192.091 169.727C192.388 169.653 192.696 169.593 192.998 169.533C193.221 169.488 193.44 169.438 193.663 169.398C193.757 169.383 193.851 169.368 193.95 169.353C194.327 169.293 194.704 169.238 195.086 169.193C195.195 169.178 195.304 169.163 195.418 169.153C195.859 169.103 196.306 169.068 196.752 169.043C196.836 169.043 196.92 169.033 197.005 169.028C197.302 169.013 197.605 169.008 197.902 169.003C198.205 168.998 198.507 168.993 198.81 169.003C199.062 169.003 199.31 169.013 199.558 169.023C199.836 169.033 200.119 169.048 200.396 169.068C200.649 169.088 200.902 169.108 201.155 169.133C201.433 169.158 201.705 169.193 201.978 169.228C202.226 169.258 202.469 169.293 202.712 169.333C203.004 169.378 203.297 169.433 203.585 169.488C203.887 169.548 204.185 169.603 204.482 169.673C204.557 169.688 204.626 169.702 204.7 169.722C205.122 169.822 205.533 169.937 205.94 170.057C206.054 170.092 206.168 170.127 206.282 170.167C206.619 170.272 206.951 170.387 207.279 170.512C207.373 170.547 207.472 170.582 207.566 170.617C207.864 170.731 208.151 170.861 208.439 170.991C208.578 171.056 208.722 171.111 208.86 171.176C209.272 171.376 209.679 171.586 210.065 171.81L249.322 194.643C250.938 195.582 252.153 196.676 252.961 197.835C253.264 198.27 253.512 198.719 253.7 199.169C253.824 199.469 253.928 199.778 254.003 200.083C254.117 200.543 254.171 201.007 254.171 201.472L254.206 189.258L254.186 189.243Z" fill="#969696"/>
<path d="M254.186 189.243C254.191 186.771 252.575 184.293 249.342 182.41L210.085 159.577C209.698 159.353 209.297 159.143 208.88 158.943C208.741 158.878 208.598 158.823 208.459 158.758C208.216 158.648 207.973 158.533 207.72 158.433C207.675 158.413 207.626 158.398 207.581 158.383C207.487 158.349 207.388 158.314 207.294 158.279C206.966 158.159 206.634 158.044 206.297 157.934C206.183 157.899 206.069 157.859 205.955 157.829C205.88 157.804 205.806 157.779 205.727 157.759C205.395 157.664 205.052 157.579 204.715 157.494C204.641 157.479 204.571 157.459 204.497 157.444C204.333 157.409 204.175 157.369 204.011 157.334C203.877 157.305 203.733 157.29 203.6 157.265C203.312 157.21 203.019 157.16 202.727 157.11C202.613 157.09 202.499 157.065 202.38 157.05C202.251 157.03 202.122 157.025 201.993 157.005C201.72 156.97 201.443 156.94 201.17 156.91C201.041 156.895 200.912 156.875 200.783 156.865C200.659 156.855 200.535 156.855 200.411 156.845C200.134 156.825 199.856 156.81 199.573 156.8C199.434 156.795 199.296 156.78 199.157 156.78C199.043 156.78 198.934 156.78 198.82 156.78C198.517 156.78 198.215 156.78 197.912 156.78C197.763 156.78 197.615 156.78 197.466 156.78C197.317 156.785 197.163 156.795 197.015 156.805C196.93 156.805 196.851 156.815 196.767 156.82C196.39 156.84 196.013 156.87 195.641 156.905C195.572 156.91 195.502 156.925 195.433 156.93C195.324 156.94 195.21 156.955 195.101 156.97C194.719 157.015 194.342 157.07 193.965 157.13C193.871 157.145 193.777 157.16 193.683 157.175C193.638 157.185 193.588 157.19 193.544 157.2C193.365 157.235 193.192 157.28 193.013 157.315C192.711 157.374 192.408 157.434 192.111 157.509C191.892 157.564 191.679 157.624 191.461 157.684C191.178 157.764 190.896 157.839 190.618 157.929C190.559 157.949 190.494 157.964 190.435 157.984C190.098 158.094 189.77 158.214 189.443 158.339C189.398 158.354 189.354 158.373 189.309 158.393C188.947 158.533 188.595 158.688 188.248 158.848C188.149 158.893 188.045 158.943 187.946 158.993C187.564 159.178 187.192 159.373 186.84 159.577C186.77 159.617 186.706 159.657 186.641 159.697C186.577 159.737 186.522 159.777 186.458 159.812C186.359 159.872 186.26 159.937 186.16 160.002C186.071 160.062 185.982 160.122 185.898 160.182C185.803 160.247 185.709 160.312 185.62 160.377C185.536 160.436 185.456 160.501 185.377 160.561C185.293 160.626 185.203 160.696 185.124 160.761C185.045 160.826 184.97 160.886 184.896 160.951C184.817 161.021 184.737 161.086 184.663 161.156C184.633 161.186 184.599 161.211 184.569 161.241C184.539 161.271 184.514 161.296 184.484 161.326C184.356 161.445 184.232 161.57 184.118 161.695C184.078 161.74 184.033 161.78 183.994 161.825C183.845 161.99 183.701 162.155 183.567 162.325C183.562 162.33 183.557 162.34 183.552 162.345C183.523 162.385 183.498 162.42 183.468 162.46C183.389 162.569 183.309 162.674 183.235 162.784C183.195 162.844 183.161 162.904 183.121 162.959C183.056 163.059 182.997 163.154 182.942 163.254C182.928 163.279 182.908 163.304 182.893 163.334C182.868 163.374 182.853 163.414 182.828 163.459C182.784 163.543 182.739 163.623 182.699 163.708C182.665 163.778 182.635 163.848 182.605 163.918C182.571 164.003 182.531 164.088 182.501 164.168C182.486 164.203 182.466 164.243 182.456 164.278C182.442 164.313 182.437 164.348 182.422 164.383C182.392 164.463 182.367 164.542 182.342 164.622C182.323 164.692 182.298 164.767 182.278 164.837C182.258 164.917 182.238 165.002 182.218 165.082C182.209 165.127 182.194 165.167 182.189 165.212C182.184 165.242 182.179 165.272 182.174 165.302C182.159 165.387 182.144 165.467 182.134 165.552C182.124 165.621 182.114 165.696 182.109 165.766C182.099 165.851 182.095 165.936 182.09 166.016C182.09 166.066 182.08 166.111 182.08 166.161C182.08 166.211 182.08 166.256 182.08 166.306L182.045 178.519C182.045 178.424 182.05 178.324 182.06 178.229C182.06 178.144 182.07 178.059 182.08 177.979C182.085 177.909 182.095 177.835 182.104 177.765C182.114 177.68 182.129 177.6 182.144 177.515C182.159 177.44 182.174 177.37 182.189 177.295C182.209 177.215 182.228 177.13 182.248 177.05C182.268 176.975 182.288 176.905 182.313 176.836C182.337 176.756 182.362 176.676 182.392 176.596C182.417 176.526 182.442 176.456 182.471 176.381C182.506 176.296 182.541 176.211 182.575 176.126C182.605 176.056 182.64 175.986 182.67 175.916C182.709 175.832 182.754 175.752 182.799 175.667C182.833 175.602 182.873 175.532 182.908 175.467C182.967 175.367 183.027 175.267 183.091 175.172C183.131 175.112 183.166 175.052 183.205 174.997C183.28 174.887 183.359 174.778 183.443 174.673C183.478 174.628 183.508 174.583 183.542 174.538C183.676 174.368 183.82 174.203 183.969 174.038C184.008 173.993 184.053 173.953 184.093 173.908C184.212 173.784 184.336 173.659 184.465 173.539C184.524 173.484 184.584 173.429 184.643 173.369C184.718 173.299 184.797 173.229 184.881 173.164C184.956 173.099 185.03 173.039 185.109 172.974C185.194 172.904 185.278 172.839 185.367 172.774C185.446 172.715 185.526 172.65 185.61 172.59C185.699 172.525 185.794 172.46 185.888 172.395C185.972 172.335 186.061 172.275 186.151 172.215C186.25 172.15 186.349 172.09 186.448 172.025C186.572 171.945 186.696 171.87 186.825 171.79C187.182 171.581 187.554 171.391 187.931 171.206C188.03 171.156 188.129 171.111 188.233 171.061C188.58 170.901 188.932 170.746 189.289 170.607C189.334 170.592 189.379 170.572 189.423 170.552C189.805 170.407 190.202 170.272 190.598 170.147C190.876 170.057 191.159 169.982 191.446 169.902C191.659 169.842 191.873 169.782 192.091 169.727C192.388 169.653 192.696 169.593 192.998 169.533C193.221 169.488 193.44 169.438 193.663 169.398C193.757 169.383 193.851 169.368 193.95 169.353C194.327 169.293 194.704 169.238 195.086 169.193C195.195 169.178 195.304 169.163 195.418 169.153C195.859 169.103 196.306 169.068 196.752 169.043C196.836 169.043 196.92 169.033 197.005 169.028C197.302 169.013 197.605 169.008 197.902 169.003C198.205 168.998 198.507 168.993 198.81 169.003C199.062 169.003 199.31 169.013 199.558 169.023C199.836 169.033 200.119 169.048 200.396 169.068C200.649 169.088 200.902 169.108 201.155 169.133C201.433 169.158 201.705 169.193 201.978 169.228C202.226 169.258 202.469 169.293 202.712 169.333C203.004 169.378 203.297 169.433 203.585 169.488C203.887 169.548 204.185 169.603 204.482 169.673C204.557 169.688 204.626 169.702 204.7 169.722C205.122 169.822 205.533 169.937 205.94 170.057C206.054 170.092 206.168 170.127 206.282 170.167C206.619 170.272 206.951 170.387 207.279 170.512C207.373 170.547 207.472 170.582 207.566 170.617C207.864 170.731 208.151 170.861 208.439 170.991C208.578 171.056 208.722 171.111 208.86 171.176C209.272 171.376 209.679 171.586 210.065 171.81L249.322 194.643C250.938 195.582 252.153 196.676 252.961 197.835C253.264 198.27 253.512 198.719 253.7 199.169C253.824 199.469 253.928 199.778 254.003 200.083C254.117 200.543 254.171 201.007 254.171 201.472L254.206 189.258L254.186 189.243Z" stroke="#12183E" strokeWidth="0.589814" strokeLinejoin="round"/>
<path d="M276.728 190.003C276.718 190.203 276.703 190.402 276.688 190.597C276.673 190.767 276.648 190.942 276.623 191.112C276.599 191.306 276.569 191.506 276.529 191.701C276.499 191.876 276.46 192.046 276.42 192.221C276.375 192.41 276.331 192.605 276.281 192.795C276.237 192.97 276.182 193.14 276.132 193.315C276.073 193.504 276.013 193.694 275.944 193.884C275.885 194.054 275.82 194.224 275.756 194.393C275.676 194.593 275.592 194.793 275.508 194.993C275.433 195.158 275.359 195.323 275.28 195.487C275.185 195.687 275.081 195.882 274.977 196.077C274.868 196.282 274.759 196.491 274.635 196.696C274.605 196.746 274.576 196.796 274.546 196.846C274.367 197.146 274.174 197.441 273.971 197.74C273.931 197.795 273.891 197.85 273.852 197.91C273.643 198.205 273.425 198.499 273.197 198.789C273.157 198.839 273.113 198.894 273.073 198.944C272.87 199.199 272.657 199.449 272.433 199.698C272.374 199.768 272.309 199.838 272.25 199.908C271.992 200.193 271.719 200.483 271.437 200.762C271.387 200.812 271.338 200.857 271.288 200.907C271.07 201.122 270.842 201.332 270.609 201.542C270.425 201.706 270.237 201.871 270.048 202.036C269.87 202.186 269.696 202.341 269.513 202.486C269.315 202.645 269.111 202.805 268.908 202.965C268.715 203.115 268.526 203.26 268.328 203.405C268.115 203.56 267.896 203.714 267.673 203.869C267.47 204.014 267.262 204.154 267.049 204.294C266.82 204.444 266.582 204.594 266.344 204.743C266.047 204.928 265.754 205.118 265.442 205.298C264.862 205.638 264.262 205.962 263.652 206.277C263.478 206.367 263.3 206.457 263.121 206.542C262.65 206.776 262.169 207.006 261.683 207.226C261.52 207.301 261.351 207.376 261.188 207.451C260.553 207.731 259.903 207.995 259.244 208.25C259.135 208.29 259.021 208.33 258.907 208.37C258.346 208.58 257.776 208.78 257.201 208.974C256.968 209.054 256.73 209.129 256.492 209.204C256.179 209.304 255.862 209.399 255.54 209.494C255.272 209.574 255.004 209.654 254.732 209.729C254.409 209.818 254.082 209.903 253.76 209.988C253.487 210.058 253.214 210.128 252.942 210.193C252.609 210.273 252.277 210.348 251.945 210.423C251.672 210.483 251.395 210.548 251.117 210.603C250.78 210.673 250.438 210.738 250.095 210.803C249.833 210.852 249.575 210.902 249.312 210.952C248.578 211.082 247.844 211.202 247.1 211.307C247.006 211.322 246.907 211.332 246.813 211.342C246.158 211.432 245.499 211.512 244.839 211.577C244.591 211.602 244.344 211.627 244.096 211.652C243.674 211.692 243.258 211.727 242.836 211.757C242.573 211.777 242.311 211.797 242.048 211.812C241.606 211.837 241.17 211.862 240.729 211.876C240.481 211.886 240.238 211.901 239.99 211.906C239.608 211.916 239.226 211.921 238.845 211.926C238.582 211.926 238.314 211.936 238.051 211.936C237.64 211.936 237.228 211.931 236.817 211.921C236.579 211.921 236.345 211.921 236.107 211.911C235.726 211.901 235.349 211.881 234.967 211.867C234.714 211.857 234.461 211.847 234.203 211.837C233.787 211.812 233.375 211.782 232.959 211.752C232.741 211.737 232.527 211.727 232.309 211.707C231.754 211.662 231.199 211.607 230.643 211.542C230.574 211.532 230.499 211.527 230.43 211.522C229.805 211.452 229.185 211.372 228.566 211.282C228.427 211.262 228.293 211.237 228.154 211.217C227.658 211.142 227.167 211.067 226.676 210.982C226.448 210.942 226.22 210.897 225.997 210.852C225.6 210.778 225.204 210.708 224.812 210.628C224.599 210.583 224.386 210.533 224.167 210.488C223.731 210.393 223.3 210.298 222.873 210.193C222.63 210.133 222.387 210.073 222.144 210.008C221.748 209.908 221.356 209.804 220.964 209.694C220.741 209.629 220.518 209.564 220.295 209.499C219.67 209.314 219.05 209.124 218.435 208.919C218.336 208.884 218.232 208.854 218.128 208.819C217.429 208.58 216.745 208.325 216.07 208.06C215.797 207.95 215.525 207.84 215.252 207.731C215.039 207.641 214.821 207.556 214.607 207.461C214.3 207.331 214.002 207.191 213.7 207.051C213.502 206.961 213.303 206.871 213.11 206.781C212.783 206.627 212.465 206.462 212.143 206.297C211.984 206.217 211.816 206.137 211.657 206.052C211.181 205.802 210.715 205.543 210.254 205.278L170.997 182.445C166.679 179.933 163.575 176.975 161.685 173.823C161.264 173.124 160.907 172.415 160.609 171.696C160.163 170.622 159.851 169.528 159.672 168.434C159.553 167.704 159.494 166.97 159.499 166.236L159.464 178.449C159.449 184.318 163.282 190.193 170.963 194.658L210.219 217.491C210.675 217.756 211.146 218.016 211.622 218.265C211.781 218.35 211.945 218.425 212.103 218.51C212.426 218.675 212.743 218.84 213.075 218.995C213.269 219.089 213.467 219.174 213.665 219.264C213.968 219.404 214.265 219.539 214.573 219.674C214.786 219.764 215.004 219.854 215.217 219.944C215.421 220.029 215.624 220.118 215.827 220.198C215.892 220.223 215.966 220.248 216.03 220.273C216.71 220.538 217.394 220.793 218.093 221.033C218.192 221.068 218.297 221.098 218.396 221.132C219.011 221.337 219.63 221.532 220.255 221.717C220.359 221.747 220.453 221.782 220.558 221.812C220.677 221.847 220.806 221.877 220.925 221.912C221.316 222.022 221.708 222.127 222.105 222.226C222.348 222.286 222.586 222.351 222.829 222.411C223.26 222.516 223.696 222.611 224.128 222.706C224.291 222.741 224.455 222.786 224.624 222.821C224.673 222.831 224.718 222.841 224.767 222.851C225.159 222.931 225.556 223.006 225.952 223.081C226.181 223.121 226.404 223.171 226.632 223.21C227.128 223.295 227.623 223.375 228.124 223.445C228.248 223.465 228.372 223.485 228.496 223.505C228.506 223.505 228.511 223.505 228.521 223.505C229.141 223.595 229.766 223.675 230.39 223.745C230.44 223.75 230.494 223.755 230.544 223.76C231.119 223.825 231.694 223.88 232.27 223.93C232.28 223.93 232.289 223.93 232.299 223.93C232.498 223.945 232.701 223.955 232.904 223.97C233.326 224 233.742 224.035 234.164 224.055C234.417 224.07 234.674 224.075 234.932 224.085C235.309 224.1 235.686 224.12 236.068 224.13C236.098 224.13 236.127 224.13 236.157 224.13C236.365 224.135 236.574 224.13 236.782 224.135C237.193 224.14 237.6 224.15 238.012 224.15C238.274 224.15 238.542 224.145 238.805 224.14C239.187 224.135 239.569 224.13 239.95 224.12C240.02 224.12 240.094 224.12 240.164 224.12C240.342 224.115 240.516 224.1 240.689 224.095C241.13 224.075 241.567 224.055 242.003 224.03C242.266 224.015 242.529 223.995 242.792 223.975C243.213 223.945 243.634 223.91 244.051 223.87C244.2 223.855 244.349 223.85 244.492 223.835C244.591 223.825 244.691 223.81 244.795 223.8C245.454 223.73 246.114 223.65 246.768 223.565C246.862 223.55 246.962 223.54 247.056 223.53C247.8 223.425 248.533 223.305 249.267 223.176C249.337 223.161 249.411 223.156 249.481 223.141C249.674 223.106 249.862 223.066 250.056 223.026C250.398 222.961 250.735 222.896 251.072 222.826C251.35 222.766 251.623 222.706 251.9 222.646C252.233 222.571 252.565 222.496 252.897 222.416C253.17 222.351 253.442 222.281 253.715 222.206C254.042 222.122 254.365 222.037 254.687 221.947C254.96 221.872 255.227 221.792 255.495 221.712C255.813 221.617 256.13 221.522 256.447 221.422C256.586 221.377 256.73 221.337 256.869 221.292C256.968 221.262 257.057 221.222 257.156 221.192C257.731 221.003 258.297 220.803 258.857 220.593C258.971 220.553 259.085 220.513 259.194 220.468C259.854 220.218 260.498 219.949 261.133 219.669C261.302 219.594 261.465 219.519 261.634 219.444C262.12 219.224 262.601 219 263.072 218.765C263.25 218.675 263.429 218.59 263.602 218.5C264.212 218.185 264.812 217.861 265.392 217.521C265.551 217.426 265.71 217.331 265.868 217.241C266.017 217.151 266.151 217.056 266.3 216.967C266.538 216.817 266.776 216.667 267.004 216.517C267.217 216.377 267.42 216.232 267.629 216.092C267.852 215.938 268.07 215.783 268.283 215.628C268.482 215.483 268.675 215.338 268.863 215.188C269.072 215.028 269.275 214.869 269.473 214.709C269.657 214.559 269.835 214.409 270.009 214.259C270.197 214.094 270.386 213.934 270.569 213.765C270.643 213.7 270.723 213.635 270.797 213.565C270.951 213.42 271.1 213.275 271.253 213.125C271.303 213.08 271.353 213.03 271.397 212.985C271.68 212.706 271.952 212.416 272.21 212.131C272.275 212.061 272.334 211.991 272.394 211.921C272.617 211.672 272.825 211.422 273.033 211.167C273.073 211.117 273.118 211.062 273.157 211.012C273.177 210.987 273.197 210.967 273.212 210.942C273.42 210.673 273.619 210.403 273.812 210.128C273.852 210.073 273.891 210.018 273.926 209.963C274.129 209.669 274.323 209.369 274.501 209.069C274.531 209.019 274.561 208.969 274.59 208.919C274.655 208.809 274.719 208.705 274.784 208.595C274.838 208.5 274.883 208.4 274.933 208.305C275.037 208.11 275.141 207.91 275.235 207.716C275.314 207.551 275.389 207.386 275.463 207.221C275.552 207.021 275.637 206.821 275.711 206.622C275.746 206.532 275.79 206.447 275.82 206.362C275.85 206.282 275.87 206.197 275.899 206.117C275.969 205.927 276.028 205.737 276.088 205.548C276.142 205.373 276.192 205.203 276.237 205.028C276.286 204.838 276.331 204.644 276.375 204.454C276.4 204.349 276.43 204.249 276.45 204.144C276.465 204.074 276.47 204.004 276.485 203.934C276.519 203.739 276.549 203.54 276.579 203.345C276.604 203.175 276.628 203 276.643 202.83C276.663 202.63 276.673 202.436 276.683 202.236C276.688 202.121 276.703 202.006 276.708 201.891C276.708 201.776 276.713 201.661 276.713 201.547L276.747 189.333C276.747 189.563 276.728 189.793 276.718 190.028L276.728 190.003Z" fill="#969696"/>
<path d="M265.253 173.099C280.515 181.976 280.595 196.422 265.432 205.298C250.269 214.175 225.516 214.175 210.253 205.298L170.997 182.465C155.735 173.589 155.655 159.143 170.819 150.267C185.982 141.39 210.734 141.39 225.997 150.267L265.253 173.099ZM226.165 195.982C232.596 199.724 243.029 199.724 249.416 195.982C255.802 192.241 255.768 186.157 249.341 182.415L210.085 159.583C203.654 155.841 193.221 155.841 186.834 159.583C180.448 163.324 180.483 169.408 186.909 173.149L226.165 195.982Z" fill="#FDFEFF"/>
<path d="M219.273 3.08447V88.4215C219.273 90.1499 218.361 91.7433 216.878 92.6075L113.88 152.564C112.502 153.368 110.776 152.364 110.776 150.761V65.324C110.776 64.29 111.109 63.296 111.694 62.4867C112.08 61.9423 112.586 61.4827 113.181 61.1331L216.174 1.28122C217.553 0.481995 219.273 1.48102 219.273 3.08447Z" stroke="#12183E" strokeWidth="0.589814" strokeLinejoin="round"/>
<path d="M221.311 2.54536L219.273 13.7695L117.242 65.5691L111.693 62.4871C112.08 61.9426 112.586 61.4831 113.181 61.1334L216.174 1.28158C217.552 0.48236 219.471 2.05084 221.311 2.54536Z" fill="#339DFF"/>
<path d="M117.043 153.873L220.041 93.9162C221.524 93.052 222.441 91.4586 222.441 89.7303V4.39319C222.441 2.78975 220.721 1.78572 219.342 2.58994L116.339 62.4418C114.852 63.306 113.939 64.9044 113.939 66.6327V152.075C113.939 153.678 115.665 154.682 117.043 153.878V153.873Z" fill="#FDFEFF"/>
<path d="M3.51903 209.609L45.5919 184.463C46.1225 184.144 46.4349 183.559 46.4101 182.935C46.3158 180.912 45.3936 177.021 39.1657 181.057C39.1657 181.057 40.4004 165.956 28.138 168.449C24.8654 169.113 21.9052 170.837 19.5598 173.224C15.8657 176.986 10.6146 184.029 12.241 192.476C12.241 192.476 1.23812 189.898 1.00012 208.14C0.985241 209.454 2.40337 210.283 3.52399 209.614L3.51903 209.609Z" fill="white" stroke="#12183E" strokeWidth="0.589814" strokeLinejoin="round"/>
<path d="M237.085 50.0187L272.806 28.6694C273.257 28.3997 273.525 27.9002 273.5 27.3707C273.42 25.6523 272.637 22.3505 267.346 25.7772C267.346 25.7772 268.398 12.9547 257.985 15.0726C255.208 15.6371 252.694 17.1006 250.701 19.1287C247.567 22.3256 243.104 28.2998 244.488 35.4728C244.488 35.4728 235.146 33.2849 234.943 48.7699C234.928 49.8838 236.133 50.5881 237.085 50.0187Z" fill="white" stroke="#12183E" strokeWidth="0.589814" strokeLinejoin="round"/>
<path d="M378.069 185.662L413.79 164.313C414.241 164.043 414.509 163.543 414.484 163.014C414.405 161.296 413.621 157.994 408.331 161.421C408.331 161.421 409.382 148.598 398.969 150.716C396.192 151.28 393.678 152.744 391.685 154.772C388.551 157.969 384.089 163.943 385.472 171.116C385.472 171.116 376.13 168.928 375.927 184.413C375.912 185.527 377.117 186.231 378.069 185.662Z" fill="white" stroke="#12183E" strokeWidth="0.589814" strokeLinejoin="round"/>
<path d="M129.261 242.207L146.383 232.187L122.24 218.146L129.261 242.212M180.046 232.187L199.746 243.646L182.972 253.466L163.272 242.008L129.951 261.514C126.777 263.372 122.141 264.026 117.847 263.227C115.987 262.882 114.341 262.288 113.012 261.514C111.282 260.505 110.092 259.196 109.66 257.732L92.7073 199.634C91.8147 196.562 94.3931 193.54 99.1285 192.116C103.864 190.687 109.596 191.212 113.379 193.41L163.158 222.362L179.372 212.871C180.736 212.072 182.416 212.072 183.785 212.866L198.462 221.403L180.041 232.187H180.046Z" stroke="#12183E" strokeWidth="0.589814" strokeLinejoin="round"/>
<path d="M182.967 253.461L163.267 242.002L129.946 261.508C129.747 261.623 129.539 261.738 129.326 261.843C129.257 261.878 129.182 261.908 129.113 261.943C128.969 262.013 128.825 262.083 128.676 262.148C128.587 262.188 128.498 262.223 128.409 262.257C128.275 262.312 128.136 262.372 127.997 262.427C127.898 262.467 127.794 262.497 127.695 262.532C127.561 262.582 127.427 262.627 127.293 262.672C127.258 262.682 127.224 262.692 127.189 262.702C126.901 262.792 126.609 262.877 126.306 262.952C126.227 262.972 126.143 262.992 126.063 263.012C125.736 263.092 125.404 263.167 125.062 263.227C124.893 263.257 124.72 263.281 124.546 263.311C124.467 263.326 124.382 263.341 124.303 263.351C124.045 263.386 123.787 263.421 123.525 263.446C123.138 263.486 122.746 263.506 122.354 263.526C122.27 263.526 122.191 263.531 122.106 263.536C121.754 263.546 121.397 263.551 121.04 263.536C120.986 263.536 120.931 263.536 120.872 263.531C120.574 263.521 120.277 263.506 119.984 263.481C119.89 263.476 119.796 263.466 119.702 263.456C119.359 263.426 119.017 263.391 118.68 263.341C118.67 263.341 118.665 263.341 118.655 263.341C118.383 263.301 118.11 263.256 117.842 263.207C117.683 263.177 117.525 263.142 117.371 263.112C116.994 263.032 116.622 262.942 116.265 262.837C116.191 262.817 116.117 262.797 116.042 262.772C115.893 262.727 115.745 262.682 115.601 262.632C115.517 262.602 115.432 262.577 115.348 262.547C115.194 262.492 115.045 262.437 114.897 262.382C114.827 262.357 114.763 262.332 114.693 262.307C114.426 262.198 114.163 262.083 113.91 261.968C113.855 261.943 113.796 261.913 113.741 261.888C113.489 261.763 113.241 261.633 113.003 261.498C111.272 260.489 110.082 259.18 109.651 257.717L92.6975 199.618C92.5785 199.209 92.519 198.799 92.524 198.395L92.4893 210.608C92.4893 211.012 92.5438 211.422 92.6628 211.831L109.616 269.93C110.047 271.394 111.237 272.707 112.968 273.711C113.201 273.846 113.449 273.976 113.707 274.101C113.761 274.126 113.816 274.156 113.875 274.181C114.128 274.301 114.386 274.416 114.659 274.526C114.669 274.526 114.684 274.536 114.693 274.541C114.748 274.561 114.803 274.58 114.857 274.6C115.006 274.655 115.155 274.71 115.308 274.765C115.393 274.795 115.477 274.82 115.566 274.85C115.71 274.895 115.854 274.945 116.002 274.985C116.052 275 116.097 275.015 116.141 275.03C116.166 275.04 116.196 275.045 116.226 275.05C116.583 275.15 116.954 275.24 117.331 275.325C117.361 275.33 117.386 275.34 117.411 275.345C117.54 275.37 117.673 275.4 117.802 275.425C118.07 275.475 118.343 275.52 118.616 275.56C118.621 275.56 118.63 275.56 118.635 275.56C118.973 275.61 119.315 275.644 119.657 275.674C119.702 275.674 119.741 275.684 119.786 275.689C119.835 275.689 119.885 275.689 119.94 275.699C120.237 275.719 120.535 275.739 120.832 275.749C120.877 275.749 120.916 275.754 120.961 275.754C120.976 275.754 120.986 275.754 121.001 275.754C121.358 275.764 121.715 275.759 122.067 275.754C122.101 275.754 122.141 275.754 122.176 275.754C122.22 275.754 122.265 275.749 122.315 275.744C122.706 275.729 123.098 275.704 123.49 275.664C123.753 275.639 124.01 275.605 124.268 275.57C124.358 275.56 124.442 275.54 124.526 275.53C124.69 275.505 124.848 275.48 125.007 275.45C125.012 275.45 125.017 275.45 125.027 275.45C125.364 275.39 125.696 275.315 126.029 275.235C126.113 275.215 126.192 275.195 126.272 275.175C126.569 275.1 126.867 275.015 127.154 274.925C127.179 274.915 127.204 274.91 127.233 274.905C127.243 274.905 127.248 274.9 127.258 274.895C127.397 274.85 127.531 274.8 127.665 274.755C127.764 274.72 127.868 274.685 127.967 274.65C128.106 274.6 128.24 274.541 128.374 274.486C128.463 274.446 128.557 274.411 128.647 274.371C128.795 274.306 128.934 274.236 129.078 274.166C129.152 274.131 129.227 274.096 129.296 274.061C129.509 273.951 129.713 273.841 129.916 273.726L163.237 254.22L182.937 265.679L199.712 255.859L199.747 243.646L182.972 253.466L182.967 253.461Z" stroke="#12183E" strokeWidth="0.589814" strokeLinecap="round" strokeLinejoin="round"/>
<path d="M343.384 149.367L363.084 160.826L346.31 170.647L326.61 159.188L293.288 178.694C290.115 180.552 285.479 181.206 281.185 180.407C279.325 180.062 277.679 179.468 276.35 178.694C274.62 177.685 273.43 176.376 272.998 174.913L256.045 116.814C255.153 113.742 257.731 110.72 262.466 109.296C267.202 107.868 272.934 108.392 276.717 110.59L326.496 139.542L342.71 130.051C344.073 129.252 345.754 129.252 347.123 130.046L361.8 138.583L343.379 149.367H343.384ZM292.599 159.388L309.721 149.367L285.578 135.326L292.599 159.393" fill="#1C1C1C"/>
<path d="M368.847 121.969L368.812 134.182L350.396 144.966L350.431 132.748L368.847 121.969Z" fill="#969696"/>
<path d="M316.767 132.748L316.733 144.967L292.59 130.925L292.625 118.707L316.767 132.748Z" fill="#969696"/>
<path d="M353.351 154.028L353.316 166.241L333.616 154.787L333.651 142.569L353.351 154.028Z" fill="#969696"/>
<path d="M370.126 144.207L370.091 156.42L353.316 166.241L353.351 154.028L370.126 144.207Z" fill="#E8E8E8"/>
<path d="M263.092 100.2C262.973 99.7908 262.914 99.3812 262.919 98.9766L262.884 111.19C262.884 111.594 262.938 112.004 263.057 112.414L280.01 170.512L280.045 158.299L263.092 100.2Z" fill="#767776"/>
<path d="M368.847 121.969L368.812 134.182L350.396 144.966L350.431 132.748L368.847 121.969Z" stroke="#12183E" strokeWidth="0.589814" strokeLinecap="round" strokeLinejoin="round"/>
<path d="M300.33 162.08C300.132 162.195 299.923 162.31 299.71 162.415C299.641 162.45 299.566 162.48 299.497 162.515C299.353 162.585 299.209 162.655 299.06 162.72C298.971 162.759 298.882 162.794 298.793 162.829C298.659 162.884 298.52 162.944 298.381 162.999C298.282 163.039 298.178 163.069 298.079 163.104C297.945 163.154 297.811 163.199 297.677 163.244C297.642 163.254 297.608 163.264 297.573 163.274C297.285 163.364 296.993 163.449 296.69 163.524C296.611 163.544 296.527 163.564 296.447 163.584C296.12 163.664 295.788 163.739 295.446 163.798C295.277 163.828 295.104 163.853 294.93 163.883C294.851 163.898 294.766 163.913 294.687 163.923C294.429 163.958 294.171 163.993 293.909 164.018C293.522 164.058 293.13 164.078 292.738 164.098C292.654 164.098 292.575 164.103 292.49 164.108C292.138 164.118 291.781 164.123 291.424 164.108C291.37 164.108 291.315 164.108 291.256 164.103C290.958 164.093 290.661 164.078 290.368 164.053C290.274 164.048 290.18 164.038 290.086 164.028C289.743 163.998 289.401 163.963 289.064 163.913C289.054 163.913 289.049 163.913 289.039 163.913C288.767 163.873 288.494 163.828 288.226 163.779C288.067 163.749 287.909 163.714 287.755 163.684C287.378 163.604 287.006 163.514 286.649 163.409C286.575 163.389 286.501 163.369 286.426 163.344C286.277 163.299 286.129 163.254 285.985 163.204C285.901 163.174 285.816 163.149 285.732 163.119C285.578 163.064 285.43 163.009 285.281 162.954C285.211 162.929 285.147 162.904 285.077 162.879C284.81 162.769 284.547 162.655 284.294 162.54C284.24 162.515 284.18 162.485 284.125 162.46C283.873 162.335 283.625 162.205 283.387 162.07C281.656 161.061 280.466 159.752 280.035 158.289L280 170.502C280.431 171.966 281.621 173.279 283.352 174.283C283.585 174.418 283.833 174.548 284.091 174.673C284.145 174.698 284.2 174.728 284.259 174.753C284.512 174.873 284.77 174.988 285.043 175.098C285.053 175.098 285.068 175.107 285.077 175.112C285.132 175.132 285.187 175.152 285.241 175.172C285.39 175.227 285.539 175.282 285.692 175.337C285.777 175.367 285.861 175.392 285.95 175.422C286.094 175.467 286.238 175.517 286.387 175.557C286.436 175.572 286.481 175.587 286.525 175.602C286.55 175.612 286.58 175.617 286.61 175.622C286.967 175.722 287.339 175.812 287.715 175.897C287.745 175.902 287.77 175.912 287.795 175.917C287.924 175.942 288.058 175.972 288.186 175.997C288.454 176.047 288.727 176.092 289 176.132C289.005 176.132 289.015 176.132 289.02 176.132C289.357 176.181 289.699 176.216 290.041 176.246C290.086 176.246 290.125 176.256 290.17 176.261C290.219 176.261 290.269 176.261 290.324 176.271C290.621 176.291 290.919 176.311 291.216 176.321C291.261 176.321 291.3 176.326 291.345 176.326C291.36 176.326 291.37 176.326 291.385 176.326C291.742 176.336 292.099 176.331 292.451 176.326C292.485 176.326 292.525 176.326 292.56 176.326C292.605 176.326 292.649 176.321 292.699 176.316C293.09 176.301 293.482 176.276 293.874 176.236C294.137 176.211 294.395 176.176 294.652 176.141C294.742 176.132 294.826 176.112 294.91 176.102C295.074 176.077 295.233 176.052 295.391 176.022C295.396 176.022 295.401 176.022 295.411 176.022C295.748 175.962 296.08 175.887 296.413 175.807C296.497 175.787 296.576 175.767 296.656 175.747C296.953 175.672 297.251 175.587 297.538 175.497C297.563 175.487 297.588 175.482 297.618 175.477C297.627 175.477 297.632 175.472 297.642 175.467C297.781 175.422 297.915 175.372 298.049 175.327C298.148 175.292 298.252 175.257 298.351 175.222C298.49 175.172 298.624 175.113 298.758 175.058C298.847 175.018 298.941 174.983 299.031 174.943C299.179 174.878 299.318 174.808 299.462 174.738C299.536 174.703 299.611 174.668 299.68 174.633C299.894 174.523 300.097 174.413 300.3 174.298L333.621 154.792L333.656 142.579L300.335 162.085L300.33 162.08Z" fill="#969696"/>
<path d="M276.757 189.313L276.722 201.527C276.722 201.642 276.722 201.756 276.717 201.871C276.713 201.991 276.698 202.106 276.693 202.221C276.683 202.416 276.673 202.616 276.653 202.815C276.633 202.985 276.608 203.16 276.589 203.33C276.559 203.53 276.529 203.724 276.494 203.924C276.479 203.994 276.474 204.064 276.46 204.134C276.44 204.239 276.41 204.339 276.385 204.444C276.346 204.634 276.301 204.823 276.246 205.018C276.202 205.188 276.152 205.363 276.098 205.538C276.038 205.728 275.979 205.917 275.909 206.107C275.879 206.187 275.86 206.272 275.83 206.352C275.795 206.442 275.756 206.527 275.721 206.617C275.641 206.811 275.557 207.011 275.468 207.211C275.398 207.376 275.319 207.541 275.24 207.706C275.146 207.905 275.041 208.105 274.937 208.3C274.888 208.395 274.843 208.495 274.789 208.59C274.729 208.7 274.66 208.81 274.595 208.914C274.565 208.964 274.541 209.019 274.511 209.069C274.327 209.364 274.134 209.664 273.931 209.958C273.896 210.013 273.856 210.068 273.817 210.123C273.623 210.398 273.43 210.673 273.217 210.937C273.202 210.962 273.182 210.982 273.162 211.007C273.123 211.057 273.078 211.112 273.038 211.162C272.835 211.417 272.622 211.667 272.399 211.917C272.339 211.986 272.275 212.056 272.215 212.126C271.952 212.411 271.685 212.696 271.402 212.98C271.352 213.025 271.303 213.075 271.253 213.12C271.104 213.265 270.956 213.415 270.802 213.56C270.728 213.625 270.648 213.69 270.574 213.755C270.39 213.925 270.202 214.084 270.014 214.249C269.84 214.399 269.662 214.554 269.478 214.699C269.28 214.864 269.076 215.023 268.868 215.178C268.68 215.328 268.486 215.473 268.288 215.618C268.075 215.773 267.857 215.928 267.633 216.082C267.425 216.227 267.222 216.367 267.009 216.507C266.781 216.662 266.543 216.807 266.305 216.957C266.161 217.047 266.027 217.141 265.878 217.231C265.72 217.326 265.561 217.421 265.402 217.511C264.822 217.856 264.222 218.175 263.612 218.49C263.439 218.58 263.26 218.67 263.082 218.755C262.611 218.99 262.13 219.219 261.644 219.439C261.48 219.514 261.311 219.594 261.143 219.664C260.508 219.944 259.864 220.208 259.204 220.463C259.095 220.503 258.981 220.543 258.867 220.583C258.307 220.793 257.741 220.998 257.166 221.188C257.067 221.217 256.978 221.257 256.879 221.287C256.74 221.332 256.596 221.372 256.457 221.417C256.14 221.517 255.822 221.617 255.505 221.712C255.237 221.787 254.969 221.867 254.697 221.942C254.374 222.032 254.052 222.122 253.725 222.202C253.452 222.276 253.179 222.346 252.907 222.411C252.575 222.491 252.242 222.566 251.91 222.641C251.637 222.706 251.36 222.766 251.082 222.826C250.745 222.896 250.408 222.961 250.066 223.026C249.872 223.066 249.684 223.106 249.49 223.141C249.421 223.156 249.347 223.161 249.277 223.176C248.543 223.305 247.809 223.425 247.066 223.53C246.971 223.545 246.872 223.555 246.778 223.565C246.124 223.655 245.469 223.735 244.81 223.805C244.705 223.815 244.606 223.83 244.507 223.84C244.358 223.855 244.21 223.865 244.066 223.875C243.644 223.915 243.223 223.95 242.801 223.985C242.539 224 242.276 224.02 242.013 224.04C241.577 224.065 241.135 224.085 240.699 224.105C240.52 224.11 240.347 224.125 240.168 224.13C240.099 224.135 240.025 224.135 239.955 224.135C239.573 224.15 239.192 224.155 238.81 224.16C238.547 224.16 238.279 224.17 238.016 224.17C237.605 224.17 237.193 224.165 236.787 224.155C236.578 224.155 236.37 224.155 236.162 224.15C236.132 224.15 236.102 224.145 236.073 224.145C235.696 224.135 235.314 224.12 234.937 224.1C234.684 224.09 234.426 224.085 234.174 224.07C233.752 224.045 233.331 224.015 232.914 223.985C232.711 223.97 232.507 223.96 232.309 223.94H232.279C232.279 223.94 232.235 223.935 232.21 223.935V211.712C232.245 211.717 232.279 211.717 232.314 211.722C232.527 211.742 232.745 211.752 232.959 211.767C233.375 211.802 233.792 211.832 234.203 211.852C234.461 211.867 234.714 211.877 234.967 211.887C235.349 211.902 235.726 211.922 236.107 211.931C236.345 211.936 236.578 211.937 236.816 211.941C237.228 211.946 237.64 211.956 238.051 211.951C238.314 211.951 238.582 211.946 238.844 211.941C239.226 211.937 239.608 211.932 239.99 211.922C240.238 211.912 240.481 211.902 240.729 211.887C241.17 211.872 241.611 211.852 242.048 211.822C242.31 211.807 242.573 211.787 242.836 211.767C243.258 211.737 243.679 211.702 244.1 211.662C244.348 211.637 244.596 211.612 244.844 211.587C245.504 211.517 246.158 211.442 246.813 211.352C246.912 211.337 247.006 211.327 247.1 211.317C247.844 211.212 248.583 211.087 249.312 210.957C249.575 210.912 249.837 210.863 250.095 210.813C250.437 210.748 250.78 210.683 251.117 210.608C251.394 210.553 251.667 210.488 251.945 210.428C252.277 210.353 252.609 210.278 252.941 210.198L253.76 209.988C254.082 209.903 254.409 209.819 254.731 209.729C255.004 209.654 255.272 209.574 255.54 209.494C255.857 209.399 256.174 209.304 256.492 209.204C256.73 209.129 256.963 209.049 257.201 208.969C257.776 208.78 258.341 208.58 258.902 208.37C259.016 208.33 259.13 208.29 259.239 208.245C259.898 207.995 260.543 207.726 261.182 207.451C261.346 207.376 261.515 207.301 261.678 207.226C262.164 207.006 262.645 206.777 263.116 206.542C263.295 206.452 263.473 206.367 263.647 206.277C264.257 205.962 264.857 205.638 265.437 205.298C265.749 205.118 266.042 204.928 266.339 204.743C266.577 204.594 266.815 204.444 267.043 204.294C267.257 204.154 267.46 204.009 267.668 203.869C267.891 203.714 268.11 203.56 268.323 203.405C268.521 203.26 268.714 203.11 268.903 202.965C269.111 202.805 269.314 202.646 269.513 202.486C269.696 202.336 269.875 202.186 270.048 202.031C270.237 201.871 270.425 201.706 270.609 201.542C270.842 201.332 271.07 201.122 271.288 200.907C271.337 200.857 271.387 200.812 271.437 200.762C271.719 200.483 271.987 200.198 272.25 199.908C272.309 199.838 272.374 199.768 272.433 199.698C272.656 199.449 272.865 199.199 273.073 198.944C273.113 198.894 273.157 198.844 273.197 198.789C273.425 198.5 273.643 198.205 273.851 197.91C273.891 197.855 273.931 197.8 273.966 197.745C274.169 197.446 274.362 197.151 274.541 196.851C274.575 196.801 274.6 196.751 274.63 196.701C274.754 196.497 274.863 196.292 274.972 196.082C275.076 195.887 275.18 195.692 275.275 195.492C275.354 195.328 275.433 195.163 275.503 194.998C275.592 194.798 275.676 194.598 275.756 194.399C275.82 194.229 275.884 194.059 275.944 193.889C276.013 193.699 276.073 193.509 276.132 193.32C276.187 193.15 276.236 192.975 276.281 192.8C276.336 192.61 276.38 192.42 276.42 192.226C276.46 192.051 276.499 191.881 276.529 191.706C276.564 191.511 276.594 191.312 276.623 191.117C276.643 190.942 276.668 190.772 276.688 190.597C276.703 190.402 276.717 190.203 276.727 190.003C276.742 189.773 276.757 189.543 276.757 189.313Z" fill="#E8E8E8"/>
<path d="M350.431 132.749L370.131 144.208L353.357 154.028L333.656 142.569L300.335 162.075C297.162 163.934 292.526 164.588 288.232 163.789C286.372 163.444 284.726 162.85 283.397 162.075C281.667 161.066 280.477 159.758 280.045 158.294L263.092 100.196C262.199 97.1235 264.778 94.1015 269.513 92.6779C274.249 91.2493 279.981 91.7737 283.764 93.9716L333.542 122.923L349.757 113.433C351.12 112.633 352.801 112.633 354.17 113.428L368.847 121.964L350.426 132.749H350.431ZM299.646 142.769L316.768 132.749L292.625 118.708L299.646 142.774" fill="#FDFEFF"/>
<path d="M299.646 142.769L316.768 132.749L292.625 118.708L299.646 142.774M350.431 132.749L370.131 144.208L353.357 154.028L333.656 142.569L300.335 162.075C297.162 163.934 292.526 164.588 288.232 163.789C286.372 163.444 284.726 162.85 283.397 162.075C281.667 161.066 280.477 159.758 280.045 158.294L263.092 100.196C262.199 97.1235 264.778 94.1015 269.513 92.6779C274.249 91.2493 279.981 91.7737 283.764 93.9716L333.542 122.923L349.757 113.433C351.12 112.633 352.801 112.633 354.17 113.428L368.847 121.964L350.426 132.749H350.431Z" stroke="#12183E" strokeWidth="0.589814" strokeLinejoin="round"/>
<path d="M353.351 154.028L333.651 142.569L300.33 162.075C300.131 162.19 299.923 162.305 299.71 162.41C299.64 162.444 299.566 162.474 299.497 162.509C299.353 162.579 299.209 162.649 299.06 162.714C298.971 162.754 298.882 162.789 298.792 162.824C298.659 162.879 298.52 162.939 298.381 162.994C298.282 163.034 298.178 163.064 298.078 163.099C297.945 163.149 297.811 163.194 297.677 163.239C297.642 163.249 297.607 163.259 297.573 163.269C297.285 163.359 296.992 163.444 296.69 163.518C296.611 163.538 296.526 163.558 296.447 163.578C296.12 163.658 295.788 163.733 295.445 163.793C295.277 163.823 295.103 163.848 294.93 163.878C294.85 163.893 294.766 163.908 294.687 163.918C294.429 163.953 294.171 163.988 293.908 164.013C293.522 164.053 293.13 164.073 292.738 164.093C292.654 164.093 292.574 164.098 292.49 164.103C292.138 164.113 291.781 164.118 291.424 164.103C291.37 164.103 291.315 164.103 291.255 164.098C290.958 164.088 290.66 164.073 290.368 164.048C290.274 164.043 290.18 164.033 290.085 164.023C289.743 163.993 289.401 163.958 289.064 163.908C289.054 163.908 289.049 163.908 289.039 163.908C288.766 163.868 288.494 163.823 288.226 163.773C288.067 163.743 287.909 163.708 287.755 163.678C287.378 163.598 287.006 163.508 286.649 163.404C286.575 163.384 286.5 163.364 286.426 163.339C286.277 163.294 286.128 163.249 285.985 163.199C285.9 163.169 285.816 163.144 285.732 163.114C285.578 163.059 285.429 163.004 285.281 162.949C285.211 162.924 285.147 162.899 285.077 162.874C284.809 162.764 284.547 162.649 284.294 162.534C284.239 162.509 284.18 162.479 284.125 162.454C283.872 162.33 283.624 162.2 283.386 162.065C281.656 161.056 280.466 159.747 280.034 158.284L263.081 100.185C262.962 99.7754 262.903 99.3658 262.908 98.9612L262.873 111.174C262.873 111.579 262.928 111.989 263.047 112.398L280 170.497C280.431 171.96 281.621 173.274 283.352 174.278C283.585 174.413 283.833 174.543 284.09 174.668C284.145 174.693 284.2 174.723 284.259 174.748C284.512 174.867 284.77 174.982 285.042 175.092C285.052 175.092 285.067 175.102 285.077 175.107C285.132 175.127 285.186 175.147 285.241 175.167C285.39 175.222 285.538 175.277 285.692 175.332C285.776 175.362 285.861 175.387 285.95 175.417C286.094 175.462 286.237 175.512 286.386 175.552C286.436 175.567 286.48 175.582 286.525 175.597C286.55 175.607 286.58 175.612 286.609 175.617C286.966 175.717 287.338 175.807 287.715 175.891C287.745 175.896 287.77 175.906 287.794 175.911C287.923 175.936 288.057 175.966 288.186 175.991C288.454 176.041 288.727 176.086 288.999 176.126C289.004 176.126 289.014 176.126 289.019 176.126C289.356 176.176 289.699 176.211 290.041 176.241C290.085 176.241 290.125 176.251 290.17 176.256C290.219 176.256 290.269 176.256 290.323 176.266C290.621 176.286 290.918 176.306 291.216 176.316C291.26 176.316 291.3 176.321 291.345 176.321C291.36 176.321 291.37 176.321 291.384 176.321C291.741 176.331 292.098 176.326 292.45 176.321C292.485 176.321 292.525 176.321 292.56 176.321C292.604 176.321 292.649 176.316 292.698 176.311C293.09 176.296 293.482 176.271 293.874 176.231C294.136 176.206 294.394 176.171 294.652 176.136C294.741 176.126 294.826 176.106 294.91 176.096C295.074 176.071 295.232 176.046 295.391 176.016C295.396 176.016 295.401 176.016 295.411 176.016C295.748 175.956 296.08 175.881 296.412 175.802C296.497 175.782 296.576 175.762 296.655 175.742C296.953 175.667 297.25 175.582 297.538 175.492C297.563 175.482 297.588 175.477 297.617 175.472C297.627 175.472 297.632 175.467 297.642 175.462C297.781 175.417 297.915 175.367 298.049 175.322C298.148 175.287 298.252 175.252 298.351 175.217C298.49 175.167 298.624 175.107 298.758 175.052C298.847 175.012 298.941 174.977 299.03 174.937C299.179 174.872 299.318 174.802 299.462 174.733C299.536 174.698 299.611 174.663 299.68 174.628C299.893 174.518 300.097 174.408 300.3 174.293L333.621 154.787L353.321 166.246L370.096 156.425L370.13 144.212L353.356 154.033L353.351 154.028Z" stroke="#12183E" strokeWidth="0.589814" strokeLinecap="round" strokeLinejoin="round"/>
<path d="M276.728 190.003C276.718 190.203 276.703 190.402 276.688 190.597C276.673 190.767 276.648 190.942 276.623 191.112C276.599 191.306 276.569 191.506 276.529 191.701C276.499 191.876 276.46 192.046 276.42 192.221C276.375 192.41 276.331 192.605 276.281 192.795C276.237 192.97 276.182 193.14 276.132 193.315C276.073 193.504 276.013 193.694 275.944 193.884C275.885 194.054 275.82 194.224 275.756 194.393C275.676 194.593 275.592 194.793 275.508 194.993C275.433 195.158 275.359 195.323 275.28 195.487C275.185 195.687 275.081 195.882 274.977 196.077C274.868 196.282 274.759 196.491 274.635 196.696C274.605 196.746 274.576 196.796 274.546 196.846C274.367 197.146 274.174 197.441 273.971 197.74C273.931 197.795 273.891 197.85 273.852 197.91C273.643 198.205 273.425 198.499 273.197 198.789C273.157 198.839 273.113 198.894 273.073 198.944C272.87 199.199 272.657 199.449 272.433 199.698C272.374 199.768 272.309 199.838 272.25 199.908C271.992 200.193 271.719 200.483 271.437 200.762C271.387 200.812 271.338 200.857 271.288 200.907C271.07 201.122 270.842 201.332 270.609 201.542C270.425 201.706 270.237 201.871 270.048 202.036C269.87 202.186 269.696 202.341 269.513 202.486C269.315 202.645 269.111 202.805 268.908 202.965C268.715 203.115 268.526 203.26 268.328 203.405C268.115 203.56 267.896 203.714 267.673 203.869C267.47 204.014 267.262 204.154 267.049 204.294C266.82 204.444 266.582 204.594 266.344 204.743C266.047 204.928 265.754 205.118 265.442 205.298C264.862 205.638 264.262 205.962 263.652 206.277C263.478 206.367 263.3 206.457 263.121 206.542C262.65 206.776 262.169 207.006 261.683 207.226C261.52 207.301 261.351 207.376 261.188 207.451C260.553 207.731 259.903 207.995 259.244 208.25C259.135 208.29 259.021 208.33 258.907 208.37C258.346 208.58 257.776 208.78 257.201 208.974C256.968 209.054 256.73 209.129 256.492 209.204C256.179 209.304 255.862 209.399 255.54 209.494C255.272 209.574 255.004 209.654 254.732 209.729C254.409 209.818 254.082 209.903 253.76 209.988C253.487 210.058 253.214 210.128 252.942 210.193C252.609 210.273 252.277 210.348 251.945 210.423C251.672 210.483 251.395 210.548 251.117 210.603C250.78 210.673 250.438 210.738 250.095 210.803C249.833 210.852 249.575 210.902 249.312 210.952C248.578 211.082 247.844 211.202 247.1 211.307C247.006 211.322 246.907 211.332 246.813 211.342C246.158 211.432 245.499 211.512 244.839 211.577C244.591 211.602 244.344 211.627 244.096 211.652C243.674 211.692 243.258 211.727 242.836 211.757C242.573 211.777 242.311 211.797 242.048 211.812C241.606 211.837 241.17 211.862 240.729 211.876C240.481 211.886 240.238 211.901 239.99 211.906C239.608 211.916 239.226 211.921 238.845 211.926C238.582 211.926 238.314 211.936 238.051 211.936C237.64 211.936 237.228 211.931 236.817 211.921C236.579 211.921 236.345 211.921 236.107 211.911C235.726 211.901 235.349 211.881 234.967 211.867C234.714 211.857 234.461 211.847 234.203 211.837C233.787 211.812 233.375 211.782 232.959 211.752C232.741 211.737 232.527 211.727 232.309 211.707C231.754 211.662 231.199 211.607 230.643 211.542C230.574 211.532 230.499 211.527 230.43 211.522C229.805 211.452 229.185 211.372 228.566 211.282C228.427 211.262 228.293 211.237 228.154 211.217C227.658 211.142 227.167 211.067 226.676 210.982C226.448 210.942 226.22 210.897 225.997 210.852C225.6 210.778 225.204 210.708 224.812 210.628C224.599 210.583 224.386 210.533 224.167 210.488C223.731 210.393 223.3 210.298 222.873 210.193C222.63 210.133 222.387 210.073 222.144 210.008C221.748 209.908 221.356 209.804 220.964 209.694C220.741 209.629 220.518 209.564 220.295 209.499C219.67 209.314 219.05 209.124 218.435 208.919C218.336 208.884 218.232 208.854 218.128 208.819C217.429 208.58 216.745 208.325 216.07 208.06C215.797 207.95 215.525 207.84 215.252 207.731C215.039 207.641 214.821 207.556 214.607 207.461C214.3 207.331 214.002 207.191 213.7 207.051C213.502 206.961 213.303 206.871 213.11 206.781C212.783 206.627 212.465 206.462 212.143 206.297C211.984 206.217 211.816 206.137 211.657 206.052C211.181 205.802 210.715 205.543 210.254 205.278L170.997 182.445C166.679 179.933 163.575 176.975 161.685 173.823C161.264 173.124 160.907 172.415 160.609 171.696C160.163 170.622 159.851 169.528 159.672 168.434C159.553 167.704 159.494 166.97 159.499 166.236L159.464 178.449C159.449 184.318 163.282 190.193 170.963 194.658L210.219 217.491C210.675 217.756 211.146 218.016 211.622 218.265C211.781 218.35 211.945 218.425 212.103 218.51C212.426 218.675 212.743 218.84 213.075 218.995C213.269 219.089 213.467 219.174 213.665 219.264C213.968 219.404 214.265 219.539 214.573 219.674C214.786 219.764 215.004 219.854 215.217 219.944C215.421 220.029 215.624 220.118 215.827 220.198C215.892 220.223 215.966 220.248 216.03 220.273C216.71 220.538 217.394 220.793 218.093 221.033C218.192 221.068 218.297 221.098 218.396 221.132C219.011 221.337 219.63 221.532 220.255 221.717C220.359 221.747 220.453 221.782 220.558 221.812C220.677 221.847 220.806 221.877 220.925 221.912C221.316 222.022 221.708 222.127 222.105 222.226C222.348 222.286 222.586 222.351 222.829 222.411C223.26 222.516 223.696 222.611 224.128 222.706C224.291 222.741 224.455 222.786 224.624 222.821C224.673 222.831 224.718 222.841 224.767 222.851C225.159 222.931 225.556 223.006 225.952 223.081C226.181 223.121 226.404 223.171 226.632 223.21C227.128 223.295 227.623 223.375 228.124 223.445C228.248 223.465 228.372 223.485 228.496 223.505C228.506 223.505 228.511 223.505 228.521 223.505C229.141 223.595 229.766 223.675 230.39 223.745C230.44 223.75 230.494 223.755 230.544 223.76C231.119 223.825 231.694 223.88 232.27 223.93C232.28 223.93 232.289 223.93 232.299 223.93C232.498 223.945 232.701 223.955 232.904 223.97C233.326 224 233.742 224.035 234.164 224.055C234.417 224.07 234.674 224.075 234.932 224.085C235.309 224.1 235.686 224.12 236.068 224.13C236.098 224.13 236.127 224.13 236.157 224.13C236.365 224.135 236.574 224.13 236.782 224.135C237.193 224.14 237.6 224.15 238.012 224.15C238.274 224.15 238.542 224.145 238.805 224.14C239.187 224.135 239.569 224.13 239.95 224.12C240.02 224.12 240.094 224.12 240.164 224.12C240.342 224.115 240.516 224.1 240.689 224.095C241.13 224.075 241.567 224.055 242.003 224.03C242.266 224.015 242.529 223.995 242.792 223.975C243.213 223.945 243.634 223.91 244.051 223.87C244.2 223.855 244.348 223.85 244.492 223.835C244.591 223.825 244.691 223.81 244.795 223.8C245.454 223.73 246.114 223.65 246.768 223.565C246.862 223.55 246.962 223.54 247.056 223.53C247.8 223.425 248.533 223.305 249.267 223.176C249.337 223.161 249.411 223.156 249.481 223.141C249.674 223.106 249.862 223.066 250.056 223.026C250.398 222.961 250.735 222.896 251.072 222.826C251.35 222.766 251.623 222.706 251.9 222.646C252.233 222.571 252.565 222.496 252.897 222.416C253.17 222.351 253.442 222.281 253.715 222.206C254.042 222.122 254.365 222.037 254.687 221.947C254.96 221.872 255.227 221.792 255.495 221.712C255.813 221.617 256.13 221.522 256.447 221.422C256.586 221.377 256.73 221.337 256.869 221.292C256.968 221.262 257.057 221.222 257.156 221.192C257.731 221.003 258.297 220.803 258.857 220.593C258.971 220.553 259.085 220.513 259.194 220.468C259.854 220.218 260.498 219.949 261.133 219.669C261.302 219.594 261.465 219.519 261.634 219.444C262.12 219.224 262.601 219 263.072 218.765C263.25 218.675 263.429 218.59 263.602 218.5C264.212 218.185 264.812 217.861 265.392 217.521C265.551 217.426 265.71 217.331 265.868 217.241C266.017 217.151 266.151 217.056 266.3 216.967C266.538 216.817 266.776 216.667 267.004 216.517C267.217 216.377 267.42 216.232 267.629 216.092C267.852 215.938 268.07 215.783 268.283 215.628C268.482 215.483 268.675 215.338 268.863 215.188C269.072 215.028 269.275 214.869 269.473 214.709C269.657 214.559 269.835 214.409 270.009 214.259C270.197 214.094 270.386 213.934 270.569 213.765C270.643 213.7 270.723 213.635 270.797 213.565C270.951 213.42 271.1 213.275 271.253 213.125C271.303 213.08 271.353 213.03 271.397 212.985C271.68 212.706 271.952 212.416 272.21 212.131C272.275 212.061 272.334 211.991 272.394 211.921C272.617 211.672 272.825 211.422 273.033 211.167C273.073 211.117 273.118 211.062 273.157 211.012C273.177 210.987 273.197 210.967 273.212 210.942C273.42 210.673 273.619 210.403 273.812 210.128C273.852 210.073 273.891 210.018 273.926 209.963C274.129 209.669 274.323 209.369 274.501 209.069C274.531 209.019 274.561 208.969 274.59 208.919C274.655 208.809 274.719 208.705 274.784 208.595C274.838 208.5 274.883 208.4 274.933 208.305C275.037 208.11 275.141 207.91 275.235 207.716C275.314 207.551 275.389 207.386 275.463 207.221C275.552 207.021 275.637 206.821 275.711 206.622C275.746 206.532 275.79 206.447 275.82 206.362C275.85 206.282 275.87 206.197 275.899 206.117C275.969 205.927 276.028 205.737 276.088 205.548C276.142 205.373 276.192 205.203 276.237 205.028C276.286 204.838 276.331 204.644 276.375 204.454C276.4 204.349 276.43 204.249 276.45 204.144C276.465 204.074 276.47 204.004 276.485 203.934C276.519 203.739 276.549 203.54 276.579 203.345C276.604 203.175 276.628 203 276.643 202.83C276.663 202.63 276.673 202.436 276.683 202.236C276.688 202.121 276.703 202.006 276.708 201.891C276.708 201.776 276.713 201.661 276.713 201.547L276.747 189.333C276.747 189.563 276.728 189.793 276.718 190.028L276.728 190.003Z" stroke="#12183E" strokeWidth="0.589814" strokeLinejoin="round"/>
<path d="M265.253 173.099C280.515 181.976 280.595 196.422 265.432 205.298C250.269 214.175 225.516 214.175 210.253 205.298L170.997 182.465C155.735 173.589 155.655 159.143 170.819 150.267C185.982 141.39 210.734 141.39 225.997 150.267L265.253 173.099ZM226.165 195.982C232.596 199.724 243.029 199.724 249.416 195.982C255.802 192.241 255.768 186.157 249.341 182.415L210.085 159.583C203.654 155.841 193.221 155.841 186.834 159.583C180.448 163.324 180.483 169.408 186.909 173.149L226.165 195.982Z" stroke="#12183E" strokeWidth="0.589814" strokeLinejoin="round"/>
<path d="M117.043 153.873L220.041 93.9162C221.524 93.052 222.441 91.4586 222.441 89.7303V4.39319C222.441 2.78975 220.721 1.78572 219.342 2.58994L116.339 62.4418C114.852 63.306 113.939 64.9044 113.939 66.6327V152.075C113.939 153.678 115.665 154.682 117.043 153.878V153.873Z" stroke="#12183E" strokeWidth="0.589814" strokeLinejoin="round"/>
<path d="M157.218 83.3414L164.755 70.5488" stroke="#12183E" strokeWidth="2.59" strokeLinecap="round" strokeLinejoin="round"/>
<path d="M164.79 79.2508L157.595 74.95" stroke="#12183E" strokeWidth="2.59" strokeLinecap="round" strokeLinejoin="round"/>
<path d="M176.973 71.9679L184.51 59.1753" stroke="#12183E" strokeWidth="2.59" strokeLinecap="round" strokeLinejoin="round"/>
<path d="M184.544 67.877L177.35 63.5762" stroke="#12183E" strokeWidth="2.59" strokeLinecap="round" strokeLinejoin="round"/>
<path d="M161.199 106.539L164.358 99.371C165.032 97.8475 167.055 97.5528 168.126 98.8315C169.133 100.035 171.017 99.8605 171.791 98.4919L175.058 92.7175C175.777 91.4437 177.498 91.189 178.554 92.198L178.896 92.5276C180.051 93.6316 181.951 93.207 182.531 91.7134L184.286 87.1978C184.772 85.944 186.235 85.3946 187.42 86.019L192.175 88.5315" stroke="#12183E" strokeWidth="2.59" strokeLinecap="round" strokeLinejoin="round"/>
<path d="M178.554 291L213.714 270.555" stroke="#12183E" strokeWidth="0.589814" strokeLinejoin="round"/>
<path d="M50.2822 250.874L76.0763 235.874" stroke="#12183E" strokeWidth="0.589814" strokeLinejoin="round"/>
<path d="M395.206 132.139L421 117.139" stroke="#12183E" strokeWidth="0.589814" strokeLinejoin="round"/>
<path d="M277.362 231.637C280.936 231.637 283.833 229.964 283.833 227.901C283.833 225.837 280.936 224.165 277.362 224.165C273.789 224.165 270.892 225.837 270.892 227.901C270.892 229.964 273.789 231.637 277.362 231.637Z" fill="#0085FF" stroke="#12183E" strokeWidth="0.589814" strokeLinejoin="round"/>
<path d="M127.269 180.077C130.842 180.077 133.74 178.405 133.74 176.341C133.74 174.278 130.842 172.605 127.269 172.605C123.695 172.605 120.798 174.278 120.798 176.341C120.798 178.405 123.695 180.077 127.269 180.077Z" fill="#0085FF" stroke="#12183E" strokeWidth="0.589814" strokeLinejoin="round"/>
</svg>
