<svg width="96" height="96" viewBox="0 0 96 96" fill="none" xmlns="http://www.w3.org/2000/svg">
<path d="M0.649785 85.7205C-0.363133 84.8298 -0.0685964 84.0826 0.692888 83.1128C2.27812 81.099 3.80587 79.0348 5.66887 77.27C8.68607 74.4108 11.8398 71.7432 15.3 69.3774C20.1826 66.0393 25.228 62.9646 30.1417 59.6792C32.5387 58.0772 34.9549 56.5088 37.383 54.9547C37.6728 54.7679 37.9098 54.6314 37.917 54.2674C38.3792 54.0687 38.8796 53.9322 39.2963 53.664C41.2168 52.426 43.1085 51.1401 45.0242 49.8925C49.0806 47.2536 53.1802 44.677 57.1936 41.9735C59.0877 40.6996 61.1159 39.6053 62.8137 38.0488C67.0641 38.0416 71.3121 38.0248 75.5626 38.0296C76.7072 38.0296 77.2124 38.5636 77.1382 39.7322C77.0305 41.43 76.2019 42.929 75.644 44.4903C73.3284 50.982 70.9122 57.4355 68.5464 63.9081C68.3907 64.3367 68.01 64.6887 68.089 65.1988C67.9262 65.5101 67.7035 65.8022 67.6125 66.1327C66.8965 68.7572 65.8093 71.2523 64.9138 73.8122C63.5201 77.792 62.0666 81.7503 60.637 85.7158H0.649785V85.7205Z" fill="#FD9A00"/>
<path d="M60.6367 85.7205C62.0639 81.7527 63.5198 77.7968 64.9135 73.817C65.8115 71.2571 66.8962 68.762 67.6122 66.1375C67.7032 65.807 67.9259 65.5149 68.0887 65.2036C73.3856 67.5503 78.3281 70.5292 83.1388 73.726C86.2949 75.8236 89.4103 77.9836 92.2934 80.4548C93.0405 81.0966 93.7685 81.7671 94.5563 82.3561C96.0242 83.4529 96.2565 84.0252 95.7703 85.7229H60.6391L60.6367 85.7205Z" fill="#0F172A"/>
<path d="M62.8106 38.0512C61.1128 39.6077 59.0846 40.6996 57.1905 41.9759C53.1771 44.6794 49.0776 47.256 45.0211 49.8949C43.1054 51.1425 41.2161 52.4284 39.2932 53.6664C38.8766 53.9346 38.3761 54.0735 37.9139 54.2698C35.9456 53.4676 34.2669 52.1626 32.5045 51.0275C28.2565 48.2953 24.0827 45.4385 20.2441 42.134C19.6144 41.5904 19.0205 40.9965 18.4578 40.3835C17.6819 39.5406 17.9549 38.5397 19.042 38.1757C19.3342 38.0775 19.6575 38.0368 19.9664 38.0368C34.2478 38.0368 48.5292 38.044 62.8106 38.0512Z" fill="#0F172A"/>
<path d="M53.9775 28.0082C53.7859 28.3027 53.5656 28.5781 53.3286 28.8391C52.6126 29.6246 51.7386 30.2663 50.8071 30.7692C50.3712 31.0039 49.9187 31.2074 49.4517 31.3726C48.9848 31.5355 48.4867 31.569 47.9958 31.5834C47.5049 31.5977 47.0308 31.6241 46.571 31.4924C44.6745 30.9464 42.7636 29.6749 41.6764 28.0106C40.2852 25.8794 40.46 24.7061 40.5893 20.8795C40.721 17.0505 40.5462 14.9648 42.026 13.1808C43.4844 11.4136 45.7975 10.9706 47.8258 11.0017C49.854 10.9682 52.1672 11.4112 53.6279 13.176C55.1078 14.96 54.933 17.0457 55.0647 20.8747C55.194 24.7013 55.3688 25.8746 53.9775 28.0058V28.0082Z" fill="#0F172A"/>
</svg>
